<?xml version="1.0" encoding="UTF-8"?>
<svg width="512px" height="512px" viewBox="0 0 512 512" version="1.1" xmlns="http://www.w3.org/2000/svg" xmlns:xlink="http://www.w3.org/1999/xlink">
    <title>Icon</title>
    <g id="Page-1" stroke="none" stroke-width="1" fill="none" fill-rule="evenodd">
        <g id="Icon">
            <path d="M128.19426,0 L383.80574,7.25467311e-15 C428.381677,-4.215174e-15 444.545989,4.64128056 460.842285,13.3566352 C477.138581,22.0719898 489.92801,34.8614185 498.643365,51.1577148 C507.358719,67.4540111 512,83.618323 512,128.19426 L512,383.80574 C512,428.381677 507.358719,444.545989 498.643365,460.842285 C489.92801,477.138581 477.138581,489.92801 460.842285,498.643365 C444.545989,507.358719 428.381677,512 383.80574,512 L128.19426,512 C83.618323,512 67.4540111,507.358719 51.1577148,498.643365 C34.8614185,489.92801 22.0719898,477.138581 13.3566352,460.842285 C4.64128056,444.545989 0,428.381677 0,383.80574 L0,128.19426 C0,83.618323 4.64128056,67.4540111 13.3566352,51.1577148 C22.0719898,34.8614185 34.8614185,22.0719898 51.1577148,13.3566352 C67.4540111,4.64128056 83.618323,0 128.19426,0 Z" id="Rectangle" fill="#232323" />
            <circle id="Oval" fill="#FFFFFF" cx="256" cy="256" r="64" />
        </g>
    </g>
</svg>
